<svg width="1135" height="313" viewBox="0 0 1135 313" fill="none" xmlns="http://www.w3.org/2000/svg">
<path d="M1116.1 50.8387C1121.3 50.8387 1125.6 52.5542 1129 55.9851C1132.4 59.2253 1134.1 63.3233 1134.1 68.279V189.789C1134.1 207.325 1130.6 221.239 1123.6 231.531C1116.8 242.015 1107.6 249.543 1096 254.118C1084.4 258.692 1071.4 260.98 1057 260.98C1050.6 260.98 1043.8 260.503 1036.6 259.55C1029.4 258.597 1023.5 257.168 1018.9 255.262C1012.9 252.784 1008.7 249.639 1006.3 245.827C1004.1 242.205 1003.7 238.298 1005.1 234.105C1006.9 228.577 1009.8 224.765 1013.8 222.668C1017.8 220.762 1022 220.572 1026.4 222.096C1029.6 223.05 1033.8 224.479 1039 226.385C1044.2 228.482 1050.2 229.53 1057 229.53C1066.2 229.53 1073.8 228.291 1079.8 225.813C1086 223.526 1090.6 219.523 1093.6 213.805C1096.8 208.278 1098.4 200.654 1098.4 190.933V171.777L1104.7 178.639C1101.3 184.929 1097 190.17 1091.8 194.364C1086.8 198.366 1080.8 201.416 1073.8 203.513C1066.8 205.609 1058.8 206.658 1049.8 206.658C1039.2 206.658 1029.9 204.37 1021.9 199.796C1014.1 195.031 1008 188.55 1003.6 180.354C999.199 171.968 996.999 162.437 996.999 151.764V68.279C996.999 63.3233 998.699 59.2253 1002.1 55.9851C1005.5 52.5542 1009.8 50.8387 1015 50.8387C1020.2 50.8387 1024.5 52.5542 1027.9 55.9851C1031.3 59.2253 1033 63.3233 1033 68.279V141.471C1033 153.86 1035.8 162.628 1041.4 167.774C1047.2 172.73 1055.2 175.208 1065.4 175.208C1072.4 175.208 1078.3 173.969 1083.1 171.491C1087.9 168.823 1091.6 165.011 1094.2 160.055C1096.8 154.909 1098.1 148.714 1098.1 141.471V68.279C1098.1 63.3233 1099.8 59.2253 1103.2 55.9851C1106.6 52.5542 1110.9 50.8387 1116.1 50.8387Z" fill="black"/>
<path d="M854.972 180.068C852.972 177.4 852.072 173.969 852.272 169.776C852.472 165.582 855.072 161.961 860.072 158.911C863.272 157.005 866.672 156.243 870.272 156.624C873.872 156.815 877.372 158.53 880.772 161.77C886.572 167.298 892.672 171.586 899.072 174.636C905.472 177.686 913.472 179.211 923.072 179.211C926.072 179.02 929.372 178.639 932.972 178.067C936.572 177.305 939.672 175.78 942.272 173.493C945.072 171.015 946.472 167.298 946.472 162.342C946.472 158.149 944.972 154.813 941.972 152.335C938.972 149.858 934.972 147.761 929.972 146.046C925.172 144.33 919.772 142.71 913.772 141.185C907.572 139.47 901.172 137.564 894.572 135.467C888.172 133.37 882.272 130.702 876.872 127.462C871.472 124.031 867.072 119.552 863.672 114.024C860.272 108.497 858.572 101.539 858.572 93.1529C858.572 83.6227 861.372 75.522 866.972 68.8509C872.572 62.1797 879.772 57.0334 888.572 53.4119C897.572 49.7905 906.972 47.9797 916.772 47.9797C922.972 47.9797 929.472 48.7421 936.272 50.267C943.072 51.6012 949.572 53.8884 955.772 57.1287C961.972 60.1784 967.172 64.2764 971.372 69.4227C973.572 72.2817 974.872 75.7126 975.272 79.7153C975.672 83.718 973.772 87.3395 969.572 90.5797C966.572 92.867 963.072 93.9153 959.072 93.7247C955.072 93.3435 951.772 92.0093 949.172 89.722C945.772 85.5287 941.172 82.1931 935.372 79.7153C929.772 77.2374 923.272 75.9985 915.872 75.9985C912.872 75.9985 909.572 76.3797 905.972 77.1421C902.572 77.714 899.572 79.1435 896.972 81.4307C894.372 83.5274 893.072 86.9583 893.072 91.7234C893.072 96.1072 894.572 99.6334 897.572 102.302C900.572 104.78 904.572 106.876 909.572 108.592C914.772 110.117 920.272 111.641 926.072 113.166C932.072 114.691 938.172 116.502 944.372 118.599C950.572 120.695 956.272 123.459 961.472 126.89C966.672 130.321 970.872 134.8 974.072 140.327C977.272 145.664 978.872 152.526 978.872 160.913C978.872 170.633 975.872 178.925 969.872 185.786C963.872 192.648 956.372 197.89 947.372 201.511C938.372 204.942 929.172 206.658 919.772 206.658C907.972 206.658 896.172 204.752 884.372 200.939C872.572 196.937 862.772 189.98 854.972 180.068Z" fill="black"/>
<path d="M819.293 47.9797C824.493 47.9797 828.793 49.5999 832.193 52.8401C835.593 56.0804 837.293 60.2737 837.293 65.42V186.358C837.293 191.314 835.593 195.507 832.193 198.938C828.793 202.178 824.493 203.799 819.293 203.799C814.093 203.799 809.793 202.178 806.393 198.938C802.993 195.507 801.293 191.314 801.293 186.358V172.349L807.893 174.922C807.893 177.4 806.493 180.45 803.693 184.071C800.893 187.502 797.093 190.933 792.293 194.364C787.493 197.795 781.793 200.749 775.193 203.227C768.793 205.514 761.793 206.658 754.193 206.658C740.393 206.658 727.893 203.322 716.693 196.651C705.493 189.789 696.593 180.45 689.993 168.632C683.593 156.624 680.393 142.901 680.393 127.462C680.393 111.832 683.593 98.1086 689.993 86.2911C696.593 74.2831 705.393 64.9435 716.393 58.2724C727.393 51.4106 739.593 47.9797 752.993 47.9797C761.593 47.9797 769.493 49.2187 776.693 51.6965C783.893 54.1744 790.093 57.3193 795.293 61.1314C800.693 64.9435 804.793 68.8509 807.593 72.8536C810.593 76.6656 812.093 79.9059 812.093 82.5744L801.293 86.2911V65.42C801.293 60.4643 802.993 56.3663 806.393 53.126C809.793 49.6952 814.093 47.9797 819.293 47.9797ZM758.693 175.208C767.493 175.208 775.193 173.111 781.793 168.918C788.393 164.725 793.493 159.007 797.093 151.764C800.893 144.521 802.793 136.42 802.793 127.462C802.793 118.313 800.893 110.117 797.093 102.874C793.493 95.6307 788.393 89.9126 781.793 85.7193C775.193 81.526 767.493 79.4294 758.693 79.4294C750.093 79.4294 742.493 81.526 735.893 85.7193C729.293 89.9126 724.093 95.6307 720.293 102.874C716.693 110.117 714.893 118.313 714.893 127.462C714.893 136.42 716.693 144.521 720.293 151.764C724.093 159.007 729.293 164.725 735.893 168.918C742.493 173.111 750.093 175.208 758.693 175.208Z" fill="black"/>
<path d="M597.368 206.658C580.368 206.658 565.568 203.322 552.968 196.651C540.568 189.789 530.968 180.545 524.168 168.918C517.568 157.291 514.268 144.139 514.268 129.463C514.268 112.309 517.868 97.7274 525.068 85.7193C532.468 73.5207 542.068 64.1811 553.868 57.7005C565.668 51.22 578.168 47.9797 591.368 47.9797C601.568 47.9797 611.168 49.9811 620.168 53.9838C629.368 57.9864 637.468 63.514 644.468 70.5663C651.468 77.4281 656.968 85.4334 660.968 94.5824C665.168 103.731 667.268 113.452 667.268 123.745C667.068 128.319 665.168 132.036 661.568 134.895C657.968 137.754 653.768 139.184 648.968 139.184H534.368L525.368 110.593H635.468L628.868 116.311V108.592C628.468 103.064 626.368 98.1086 622.568 93.7247C618.968 89.3408 614.368 85.9099 608.768 83.4321C603.368 80.7636 597.568 79.4294 591.368 79.4294C585.368 79.4294 579.768 80.1918 574.568 81.7166C569.368 83.2415 564.868 85.8146 561.068 89.4361C557.268 93.0576 554.268 97.918 552.068 104.017C549.868 110.117 548.768 117.836 548.768 127.176C548.768 137.468 550.968 146.236 555.368 153.479C559.968 160.531 565.768 165.964 572.768 169.776C579.968 173.397 587.568 175.208 595.568 175.208C602.968 175.208 608.868 174.636 613.268 173.493C617.668 172.349 621.168 171.015 623.768 169.49C626.568 167.774 629.068 166.345 631.268 165.201C634.868 163.486 638.268 162.628 641.468 162.628C645.868 162.628 649.468 164.058 652.268 166.917C655.268 169.776 656.768 173.111 656.768 176.923C656.768 182.07 653.968 186.739 648.368 190.933C643.168 195.126 635.868 198.843 626.468 202.083C617.068 205.133 607.368 206.658 597.368 206.658Z" fill="black"/>
<path d="M428.489 47.9797C442.489 47.9797 454.989 51.4106 465.989 58.2724C477.189 64.9435 485.989 74.1878 492.389 86.0052C498.989 97.8227 502.289 111.546 502.289 127.176C502.289 142.805 498.989 156.624 492.389 168.632C485.989 180.45 477.289 189.789 466.289 196.651C455.489 203.322 443.289 206.658 429.689 206.658C421.689 206.658 414.189 205.419 407.189 202.941C400.189 200.463 393.989 197.318 388.589 193.506C383.389 189.694 379.289 185.882 376.289 182.07C373.489 178.067 372.089 174.731 372.089 172.063L381.389 168.346V243.539C381.389 248.495 379.689 252.593 376.289 255.833C372.889 259.264 368.589 260.98 363.389 260.98C358.189 260.98 353.889 259.36 350.489 256.119C347.089 252.879 345.389 248.686 345.389 243.539V68.2791C345.389 63.3234 347.089 59.2254 350.489 55.9851C353.889 52.5542 358.189 50.8388 363.389 50.8388C368.589 50.8388 372.889 52.5542 376.289 55.9851C379.689 59.2254 381.389 63.3234 381.389 68.2791V82.2885L376.289 79.7153C376.289 77.2374 377.689 74.2831 380.489 70.8522C383.289 67.2307 387.089 63.7046 391.889 60.2737C396.689 56.6522 402.189 53.6979 408.389 51.4106C414.789 49.1234 421.489 47.9797 428.489 47.9797ZM423.989 79.4294C415.189 79.4294 407.489 81.526 400.889 85.7193C394.289 89.9126 389.089 95.6307 385.289 102.874C381.689 109.926 379.889 118.027 379.889 127.176C379.889 136.134 381.689 144.33 385.289 151.764C389.089 159.007 394.289 164.725 400.889 168.918C407.489 173.111 415.189 175.208 423.989 175.208C432.789 175.208 440.389 173.111 446.789 168.918C453.389 164.725 458.489 159.007 462.089 151.764C465.889 144.33 467.789 136.134 467.789 127.176C467.789 118.027 465.889 109.926 462.089 102.874C458.489 95.6307 453.389 89.9126 446.789 85.7193C440.389 81.526 432.789 79.4294 423.989 79.4294Z" fill="black"/>
<mask id="mask0_42_147" style="mask-type:alpha" maskUnits="userSpaceOnUse" x="28" y="28" width="257" height="257">
<path d="M279.739 189.445C261.486 257.566 191.466 297.992 123.344 279.739C55.2232 261.486 14.797 191.466 33.05 123.345C51.3031 55.2232 121.323 14.797 189.445 33.0501C257.566 51.3031 297.992 121.323 279.739 189.445Z" fill="black"/>
</mask>
<g mask="url(#mask0_42_147)">
<path fill-rule="evenodd" clip-rule="evenodd" d="M321.544 37.1482L317.271 33.8694C296.561 17.978 266.676 23.2981 252.722 45.3604C200.204 128.398 110.244 180.337 12.072 184.3C-14.0113 185.353 -33.5609 208.574 -30.1536 234.455L-29.4506 239.795C-27.7434 252.762 -20.9549 264.52 -10.5785 272.482L-6.16562 275.868C17.0729 293.7 50.5083 288.428 67.1332 264.312C119.326 188.6 202.819 140.395 294.484 133.051C323.682 130.711 344.965 104.391 341.142 75.3503L340.416 69.8356C338.708 56.8682 331.92 45.1103 321.544 37.1482ZM394.771 -67.1309C314.674 -128.592 199.093 -108.016 145.128 -22.6888C114.97 24.9947 63.3111 54.8199 6.93705 57.0956C-93.941 61.1678 -169.55 150.975 -156.372 251.072L-155.669 256.412C-149.555 302.854 -125.242 344.966 -88.0787 373.482L-83.6658 376.868C-2.62592 439.052 113.973 420.669 171.949 336.567C202.414 292.375 251.148 264.239 304.651 259.952C406.474 251.794 480.694 160.008 467.361 58.7333L466.635 53.2186C460.52 6.77591 436.207 -35.3356 399.044 -63.8521L394.771 -67.1309Z" fill="black"/>
</g>
</svg>
