<svg width="789" height="213" viewBox="0 0 789 213" fill="none" xmlns="http://www.w3.org/2000/svg">
<path d="M770.709 2.85906C775.909 2.85906 780.209 4.57451 783.609 8.00538C787.009 11.2457 788.709 15.3436 788.709 20.2993V141.809C788.709 159.345 785.209 173.259 778.209 183.552C771.409 194.035 762.209 201.564 750.609 206.138C739.009 210.713 726.009 213 711.609 213C705.209 213 698.409 212.524 691.209 211.57C684.009 210.617 678.109 209.188 673.509 207.282C667.509 204.804 663.309 201.659 660.909 197.847C658.709 194.226 658.309 190.318 659.709 186.125C661.509 180.597 664.409 176.785 668.409 174.689C672.409 172.783 676.609 172.592 681.009 174.117C684.209 175.07 688.409 176.499 693.609 178.405C698.809 180.502 704.809 181.55 711.609 181.55C720.809 181.55 728.409 180.311 734.409 177.834C740.609 175.546 745.209 171.544 748.209 165.826C751.409 160.298 753.009 152.674 753.009 142.953V123.797L759.309 130.659C755.909 136.949 751.609 142.191 746.409 146.384C741.409 150.387 735.409 153.436 728.409 155.533C721.409 157.63 713.409 158.678 704.409 158.678C693.809 158.678 684.509 156.391 676.509 151.816C668.709 147.051 662.609 140.57 658.209 132.375C653.809 123.988 651.609 114.458 651.609 103.784V20.2993C651.609 15.3436 653.309 11.2457 656.709 8.00538C660.109 4.57451 664.409 2.85906 669.609 2.85906C674.809 2.85906 679.109 4.57451 682.509 8.00538C685.909 11.2457 687.609 15.3436 687.609 20.2993V93.4913C687.609 105.881 690.409 114.648 696.009 119.795C701.809 124.75 709.809 127.228 720.009 127.228C727.009 127.228 732.909 125.989 737.709 123.511C742.509 120.843 746.209 117.031 748.809 112.075C751.409 106.929 752.709 100.734 752.709 93.4913V20.2993C752.709 15.3436 754.409 11.2457 757.809 8.00538C761.209 4.57451 765.509 2.85906 770.709 2.85906Z" fill="black"/>
<path d="M509.583 132.089C507.583 129.42 506.683 125.989 506.883 121.796C507.083 117.603 509.683 113.981 514.683 110.932C517.883 109.025 521.283 108.263 524.883 108.644C528.483 108.835 531.983 110.55 535.383 113.791C541.183 119.318 547.283 123.607 553.683 126.656C560.083 129.706 568.083 131.231 577.683 131.231C580.683 131.04 583.983 130.659 587.583 130.087C591.183 129.325 594.283 127.8 596.883 125.513C599.683 123.035 601.083 119.318 601.083 114.362C601.083 110.169 599.583 106.834 596.583 104.356C593.583 101.878 589.583 99.7812 584.583 98.0658C579.783 96.3503 574.383 94.7302 568.383 93.2054C562.183 91.4899 555.783 89.5839 549.183 87.4873C542.783 85.3906 536.883 82.7221 531.483 79.4819C526.083 76.051 521.683 71.5718 518.283 66.0443C514.883 60.5168 513.183 53.5597 513.183 45.1731C513.183 35.643 515.983 27.5423 521.583 20.8711C527.183 14.2 534.383 9.05369 543.183 5.43221C552.183 1.81074 561.583 0 571.383 0C577.583 0 584.083 0.762407 590.883 2.28724C597.683 3.62146 604.183 5.90871 610.383 9.14898C616.583 12.1986 621.783 16.2966 625.983 21.4429C628.183 24.302 629.483 27.7329 629.883 31.7356C630.283 35.7382 628.383 39.3597 624.183 42.6C621.183 44.8873 617.683 45.9356 613.683 45.745C609.683 45.3638 606.383 44.0295 603.783 41.7423C600.383 37.549 595.783 34.2134 589.983 31.7356C584.383 29.2577 577.883 28.0188 570.483 28.0188C567.483 28.0188 564.183 28.4 560.583 29.1624C557.183 29.7342 554.183 31.1638 551.583 33.451C548.983 35.5476 547.683 38.9785 547.683 43.7436C547.683 48.1275 549.183 51.6537 552.183 54.3221C555.183 56.8 559.183 58.8967 564.183 60.6121C569.383 62.1369 574.883 63.6617 580.683 65.1866C586.683 66.7114 592.783 68.5221 598.983 70.6188C605.183 72.7154 610.883 75.4792 616.083 78.9101C621.283 82.3409 625.483 86.8201 628.683 92.3476C631.883 97.6846 633.483 104.546 633.483 112.933C633.483 122.654 630.483 130.945 624.483 137.807C618.483 144.668 610.983 149.91 601.983 153.532C592.983 156.962 583.783 158.678 574.383 158.678C562.583 158.678 550.783 156.772 538.983 152.96C527.183 148.957 517.383 142 509.583 132.089Z" fill="black"/>
<path d="M473.904 0C479.104 0 483.404 1.62014 486.804 4.86041C490.204 8.10067 491.904 12.2939 491.904 17.4403V138.379C491.904 143.334 490.204 147.528 486.804 150.958C483.404 154.199 479.104 155.819 473.904 155.819C468.704 155.819 464.404 154.199 461.004 150.958C457.604 147.528 455.904 143.334 455.904 138.379V124.369L462.504 126.942C462.504 129.42 461.104 132.47 458.304 136.091C455.504 139.522 451.704 142.953 446.904 146.384C442.104 149.815 436.404 152.769 429.804 155.247C423.404 157.534 416.404 158.678 408.804 158.678C395.004 158.678 382.504 155.342 371.304 148.671C360.104 141.809 351.204 132.47 344.604 120.652C338.204 108.644 335.004 94.9208 335.004 79.4819C335.004 63.8523 338.204 50.1289 344.604 38.3114C351.204 26.3033 360.004 16.9638 371.004 10.2926C382.004 3.43087 394.204 0 407.604 0C416.204 0 424.104 1.23892 431.304 3.71677C438.504 6.19462 444.704 9.33959 449.904 13.1517C455.304 16.9638 459.404 20.8711 462.204 24.8738C465.204 28.6859 466.704 31.9262 466.704 34.5946L455.904 38.3114V17.4403C455.904 12.4845 457.604 8.38656 461.004 5.1463C464.404 1.71543 468.704 0 473.904 0ZM413.304 127.228C422.104 127.228 429.804 125.132 436.404 120.938C443.004 116.745 448.104 111.027 451.704 103.784C455.504 96.5409 457.404 88.4403 457.404 79.4819C457.404 70.3329 455.504 62.1369 451.704 54.894C448.104 47.651 443.004 41.9329 436.404 37.7396C429.804 33.5463 422.104 31.4496 413.304 31.4496C404.704 31.4496 397.104 33.5463 390.504 37.7396C383.904 41.9329 378.704 47.651 374.904 54.894C371.304 62.1369 369.504 70.3329 369.504 79.4819C369.504 88.4403 371.304 96.5409 374.904 103.784C378.704 111.027 383.904 116.745 390.504 120.938C397.104 125.132 404.704 127.228 413.304 127.228Z" fill="black"/>
<path d="M251.979 158.678C234.979 158.678 220.179 155.342 207.579 148.671C195.179 141.809 185.579 132.565 178.779 120.938C172.179 109.311 168.879 96.1597 168.879 81.4832C168.879 64.3289 172.479 49.7476 179.679 37.7396C187.079 25.5409 196.679 16.2013 208.479 9.72079C220.279 3.24025 232.779 0 245.979 0C256.179 0 265.779 2.00134 274.779 6.00402C283.979 10.0067 292.079 15.5342 299.079 22.5866C306.079 29.4483 311.579 37.4537 315.579 46.6027C319.779 55.7517 321.879 65.4725 321.879 75.7651C321.679 80.3396 319.779 84.0564 316.179 86.9154C312.579 89.7745 308.379 91.204 303.579 91.204H188.979L179.979 62.6134H290.079L283.479 68.3315V60.6121C283.079 55.0846 280.979 50.1289 277.179 45.745C273.579 41.3611 268.979 37.9302 263.379 35.4523C257.979 32.7839 252.179 31.4496 245.979 31.4496C239.979 31.4496 234.379 32.2121 229.179 33.7369C223.979 35.2617 219.479 37.8349 215.679 41.4564C211.879 45.0779 208.879 49.9383 206.679 56.0376C204.479 62.1369 203.379 69.8564 203.379 79.196C203.379 89.4886 205.579 98.2564 209.979 105.499C214.579 112.552 220.379 117.984 227.379 121.796C234.579 125.417 242.179 127.228 250.179 127.228C257.579 127.228 263.479 126.656 267.879 125.513C272.279 124.369 275.779 123.035 278.379 121.51C281.179 119.795 283.679 118.365 285.879 117.221C289.479 115.506 292.879 114.648 296.079 114.648C300.479 114.648 304.079 116.078 306.879 118.937C309.879 121.796 311.379 125.132 311.379 128.944C311.379 134.09 308.579 138.76 302.979 142.953C297.779 147.146 290.479 150.863 281.079 154.103C271.679 157.153 261.979 158.678 251.979 158.678Z" fill="black"/>
<path d="M83.1 0C97.1 0 109.6 3.43087 120.6 10.2926C131.8 16.9638 140.6 26.208 147 38.0255C153.6 49.8429 156.9 63.5664 156.9 79.196C156.9 94.8255 153.6 108.644 147 120.652C140.6 132.47 131.9 141.809 120.9 148.671C110.1 155.342 97.9 158.678 84.3 158.678C76.3 158.678 68.8 157.439 61.8 154.961C54.8 152.483 48.6 149.338 43.2 145.526C38 141.714 33.9 137.902 30.9 134.09C28.1 130.087 26.7 126.752 26.7 124.083L36 120.366V195.56C36 200.515 34.3 204.613 30.9 207.854C27.5 211.285 23.2 213 18 213C12.8 213 8.5 211.38 5.1 208.14C1.7 204.899 0 200.706 0 195.56V20.2993C0 15.3436 1.7 11.2456 5.1 8.00536C8.5 4.57449 12.8 2.85905 18 2.85905C23.2 2.85905 27.5 4.57449 30.9 8.00536C34.3 11.2456 36 15.3436 36 20.2993V34.3087L30.9 31.7356C30.9 29.2577 32.3 26.3033 35.1 22.8725C37.9 19.251 41.7 15.7248 46.5 12.294C51.3 8.67248 56.8 5.71812 63 3.43086C69.4 1.14362 76.1 0 83.1 0ZM78.6 31.4496C69.8 31.4496 62.1 33.5463 55.5 37.7396C48.9 41.9329 43.7 47.651 39.9 54.894C36.3 61.9463 34.5 70.047 34.5 79.196C34.5 88.1544 36.3 96.3503 39.9 103.784C43.7 111.027 48.9 116.745 55.5 120.938C62.1 125.132 69.8 127.228 78.6 127.228C87.4 127.228 95 125.132 101.4 120.938C108 116.745 113.1 111.027 116.7 103.784C120.5 96.3503 122.4 88.1544 122.4 79.196C122.4 70.047 120.5 61.9463 116.7 54.894C113.1 47.651 108 41.9329 101.4 37.7396C95 33.5463 87.4 31.4496 78.6 31.4496Z" fill="black"/>
</svg>
