<svg width="313" height="313" viewBox="0 0 313 313" fill="none" xmlns="http://www.w3.org/2000/svg">
<mask id="mask0_35_58" style="mask-type:alpha" maskUnits="userSpaceOnUse" x="28" y="28" width="257" height="257">
<path d="M279.739 189.445C261.486 257.566 191.466 297.992 123.344 279.739C55.2232 261.486 14.797 191.466 33.05 123.345C51.3031 55.2232 121.323 14.797 189.445 33.0501C257.566 51.3031 297.992 121.323 279.739 189.445Z" fill="black"/>
</mask>
<g mask="url(#mask0_35_58)">
<path fill-rule="evenodd" clip-rule="evenodd" d="M321.544 37.1482L317.271 33.8694C296.561 17.978 266.676 23.2981 252.722 45.3604C200.204 128.398 110.244 180.337 12.072 184.3C-14.0113 185.353 -33.5609 208.574 -30.1536 234.455L-29.4506 239.795C-27.7434 252.762 -20.9549 264.52 -10.5785 272.482L-6.16562 275.868C17.0729 293.7 50.5083 288.428 67.1332 264.312C119.326 188.6 202.819 140.395 294.484 133.051C323.682 130.711 344.965 104.391 341.142 75.3503L340.416 69.8356C338.708 56.8682 331.92 45.1103 321.544 37.1482ZM394.771 -67.1309C314.674 -128.592 199.093 -108.016 145.128 -22.6888C114.97 24.9947 63.3111 54.8199 6.93705 57.0956C-93.941 61.1678 -169.55 150.975 -156.372 251.072L-155.669 256.412C-149.555 302.854 -125.242 344.966 -88.0787 373.482L-83.6658 376.868C-2.62592 439.052 113.973 420.669 171.949 336.567C202.414 292.375 251.148 264.239 304.651 259.952C406.474 251.794 480.694 160.008 467.361 58.7333L466.635 53.2186C460.52 6.77591 436.207 -35.3356 399.044 -63.8521L394.771 -67.1309Z" fill="black"/>
</g>
</svg>
